# Blender v2.64 (sub 0) OBJ File: 'asteroid.blend'
# www.blender.org
mtllib asteroid.mtl
o Icosphere
v 0.000000 0.000000 -1.000000
v -0.525725 -0.723607 -0.447220
v -0.850649 0.276388 -0.447220
v 0.000000 0.894426 -0.447216
v 0.868406 0.201559 -0.296368
v 0.525725 -0.723607 -0.447220
v -0.838892 -0.273906 0.488961
v -0.383441 0.652673 0.393433
v 0.525725 0.723607 0.447220
v 0.907406 -0.142450 0.269405
v 0.175089 -0.777717 0.397834
v 0.000000 0.000000 1.000000
v -0.309011 -0.425323 -0.850654
v -0.809012 -0.262869 -0.525738
v -0.576121 0.209335 -0.710148
v 0.332899 -0.519785 -0.758805
v 0.000000 -0.850648 -0.525736
v -0.499997 0.688189 -0.525736
v 0.017757 0.450901 -0.699799
v 0.517754 0.613361 -0.374884
v 0.517752 0.087627 -0.699802
v 0.809012 -0.262869 -0.525738
v 0.309013 -1.011350 0.000000
v -0.309013 -0.951058 0.000000
v -0.809017 -0.587786 0.000000
v -0.847945 -0.096578 0.042720
v -0.666732 0.516851 -0.053787
v -0.156958 0.854480 0.042720
v 0.309013 0.951058 0.000000
v 0.809017 0.587786 0.000000
v 0.990280 0.005973 0.023356
v 0.893906 -0.639043 0.000000
v -0.330519 -0.626864 0.487482
v -0.666727 0.191934 0.471951
v 0.000000 0.850648 0.525736
v 0.809012 0.262869 0.525738
v 0.556754 -0.554251 0.347921
v 0.056757 -0.391792 0.672836
v -0.499995 -0.162456 0.850654
v -0.309011 0.425323 0.850654
v 0.303452 0.383311 0.850107
v 0.556752 -0.028517 0.672839
vt 0.251795 0.264556
vt 0.306818 0.306719
vt 0.218596 0.346797
vt 0.372417 0.359955
vt 0.392633 0.267163
vt 0.178159 0.261289
vt 0.233777 0.182903
vt 0.325308 0.216394
vt 0.495698 0.356258
vt 0.202304 0.403524
vt 0.287863 0.395250
vt 0.260704 0.520076
vt 0.097184 0.270460
vt 0.141536 0.345391
vt 0.000000 0.331303
vt 0.202659 0.088868
vt 0.124954 0.166630
vt 0.089542 0.060137
vt 0.379497 0.170961
vt 0.293238 0.127691
vt 0.405731 0.040275
vt 0.388539 0.482346
vt 0.107388 0.451402
vt 0.000000 0.198884
vt 0.237513 0.000000
vt 0.508944 0.191052
vt 0.875332 0.170862
vt 0.885264 0.274142
vt 0.814103 0.210247
vt 0.710469 0.109360
vt 0.805266 0.127648
vt 0.740090 0.182707
vt 0.606243 0.236945
vt 0.654949 0.161542
vt 0.693071 0.246532
vt 0.664999 0.411963
vt 0.640912 0.322501
vt 0.708734 0.321465
vt 0.856952 0.370567
vt 0.777638 0.410831
vt 0.805280 0.300691
vt 1.000000 0.336320
vt 0.908476 0.467295
vt 0.912808 0.075340
vt 1.000000 0.175405
vt 0.617806 0.061506
vt 0.764349 0.000000
vt 0.508944 0.309288
vt 0.524711 0.146610
vt 0.741327 0.519279
vt 0.598662 0.440739
vt 0.757280 0.246841
vn -0.446455 0.010187 -0.894748
vn -0.268032 -0.700224 -0.661699
vn -0.208652 0.547671 -0.810260
vn 0.367204 0.505411 -0.780846
vn 0.509359 -0.071711 -0.857561
vn -0.268032 -0.904989 -0.330385
vn -0.996404 -0.069979 -0.047773
vn -0.374936 0.925976 -0.044619
vn 0.700429 0.499155 -0.510139
vn 0.706341 -0.516743 -0.483797
vn -0.583126 -0.802609 -0.125627
vn -0.919872 0.309619 0.240773
vn -0.201582 0.979353 0.015270
vn 0.940547 0.285650 -0.183781
vn 0.516747 -0.811809 -0.271917
vn -0.447090 -0.646544 0.618135
vn -0.754859 0.529978 0.386409
vn 0.264493 0.659878 0.703282
vn 0.691771 -0.258489 0.674267
vn 0.374268 -0.459289 0.805591
vn -0.683907 0.053139 -0.727632
vn -0.555599 -0.050096 -0.829940
vn -0.583122 -0.471300 -0.661699
vn 0.269561 -0.720941 -0.638420
vn 0.027607 -0.594086 -0.803927
vn 0.076160 -0.379148 -0.922196
vn -0.066498 0.491762 -0.868187
vn -0.136491 0.374839 -0.916987
vn -0.594039 0.369598 -0.714504
vn 0.628425 0.408946 -0.661698
vn 0.356821 0.491119 -0.794657
vn 0.367815 0.471255 -0.801643
vn 0.579498 -0.469794 -0.665939
vn 0.462739 -0.054878 -0.884794
vn 0.696762 0.244022 -0.674519
vn -0.085012 -0.871412 0.483130
vn -0.094259 -0.966201 -0.239937
vn 0.272066 -0.863848 -0.423966
vn -0.996890 -0.078065 -0.010798
vn -0.996114 -0.074916 -0.046309
vn -0.777865 -0.534576 -0.330387
vn -0.563074 0.819340 0.107844
vn -0.562453 0.820846 0.099293
vn -0.764273 0.643872 -0.036257
vn 0.583126 0.802609 0.125627
vn 0.545464 0.750771 -0.372575
vn 0.476789 0.768472 -0.426760
vn 0.960786 -0.151953 0.231951
vn 0.958697 -0.134160 -0.250802
vn 0.942125 0.043680 -0.332404
vn -0.510667 -0.737378 0.442145
vn -0.523174 -0.720090 0.455806
vn -0.150270 -0.826265 0.542867
vn -0.777865 0.534576 0.330387
vn -0.933325 0.305410 0.188759
vn -0.924510 0.347407 0.156809
vn 0.268032 0.904989 0.330385
vn -0.196140 0.977966 0.071496
vn -0.497476 0.850974 0.168409
vn 0.943720 0.020319 0.330122
vn 0.936154 0.299079 0.184846
vn 0.777865 0.534576 0.330387
vn 0.472140 -0.681492 0.559153
vn 0.434547 -0.682674 0.587474
vn 0.611983 -0.389918 0.688070
vn -0.020027 -0.642539 0.765992
vn -0.002538 -0.616588 0.787282
vn -0.031447 -0.586407 0.809406
vn -0.315090 0.102381 0.943523
vn -0.776242 0.252221 0.577784
vn -0.740856 0.295825 0.603009
vn 0.024646 0.347097 0.937505
vn 0.041025 0.587557 0.808142
vn -0.527286 0.723482 0.445582
vn 0.503332 -0.061421 0.861907
vn 0.533674 -0.035457 0.844946
vn 0.554615 0.459258 0.693891
vn 0.401185 -0.552179 0.730855
vn 0.356821 -0.491119 0.794658
vn 0.628425 -0.408946 0.661699
usemtl 
s off
f 1/1/1 13/2/1 15/3/1
f 2/4/2 13/2/2 17/5/2
f 1/1/3 15/3/3 19/6/3
f 1/1/4 19/6/4 21/7/4
f 1/1/5 21/7/5 16/8/5
f 2/4/6 17/5/6 24/9/6
f 3/10/7 14/11/7 26/12/7
f 4/13/8 18/14/8 28/15/8
f 5/16/9 20/17/9 30/18/9
f 6/19/10 22/20/10 32/21/10
f 2/4/11 24/9/11 25/22/11
f 3/10/12 26/12/12 27/23/12
f 4/13/13 28/15/13 29/24/13
f 5/16/14 30/18/14 31/25/14
f 6/19/15 32/21/15 23/26/15
f 7/27/16 33/28/16 39/29/16
f 8/30/17 34/31/17 40/32/17
f 9/33/18 35/34/18 41/35/18
f 10/36/19 36/37/19 42/38/19
f 11/39/20 37/40/20 38/41/20
f 15/3/21 14/11/21 3/10/21
f 15/3/22 13/2/22 14/11/22
f 13/2/23 2/4/23 14/11/23
f 17/5/24 16/8/24 6/19/24
f 17/5/25 13/2/25 16/8/25
f 13/2/26 1/1/26 16/8/26
f 19/6/27 18/14/27 4/13/27
f 19/6/28 15/3/28 18/14/28
f 15/3/29 3/10/29 18/14/29
f 21/7/30 20/17/30 5/16/30
f 21/7/31 19/6/31 20/17/31
f 19/6/32 4/13/32 20/17/32
f 16/8/33 22/20/33 6/19/33
f 16/8/34 21/7/34 22/20/34
f 21/7/35 5/16/35 22/20/35
f 24/42/36 23/43/36 11/39/36
f 24/9/37 17/5/37 23/26/37
f 17/5/38 6/19/38 23/26/38
f 26/44/39 25/45/39 7/27/39
f 26/12/40 14/11/40 25/22/40
f 14/11/41 2/4/41 25/22/41
f 28/46/42 27/47/42 8/30/42
f 28/15/43 18/14/43 27/23/43
f 18/14/44 3/10/44 27/23/44
f 30/48/45 29/49/45 9/33/45
f 30/18/46 20/17/46 29/24/46
f 20/17/47 4/13/47 29/24/47
f 32/50/48 31/51/48 10/36/48
f 32/21/49 22/20/49 31/25/49
f 22/20/50 5/16/50 31/25/50
f 25/45/51 33/28/51 7/27/51
f 25/45/52 24/42/52 33/28/52
f 24/42/53 11/39/53 33/28/53
f 27/47/54 34/31/54 8/30/54
f 27/47/55 26/44/55 34/31/55
f 26/44/56 7/27/56 34/31/56
f 29/49/57 35/34/57 9/33/57
f 29/49/58 28/46/58 35/34/58
f 28/46/59 8/30/59 35/34/59
f 31/51/60 36/37/60 10/36/60
f 31/51/61 30/48/61 36/37/61
f 30/48/62 9/33/62 36/37/62
f 23/43/63 37/40/63 11/39/63
f 23/43/64 32/50/64 37/40/64
f 32/50/65 10/36/65 37/40/65
f 39/29/66 38/41/66 12/52/66
f 39/29/67 33/28/67 38/41/67
f 33/28/68 11/39/68 38/41/68
f 40/32/69 39/29/69 12/52/69
f 40/32/70 34/31/70 39/29/70
f 34/31/71 7/27/71 39/29/71
f 41/35/72 40/32/72 12/52/72
f 41/35/73 35/34/73 40/32/73
f 35/34/74 8/30/74 40/32/74
f 42/38/75 41/35/75 12/52/75
f 42/38/76 36/37/76 41/35/76
f 36/37/77 9/33/77 41/35/77
f 38/41/78 42/38/78 12/52/78
f 38/41/79 37/40/79 42/38/79
f 37/40/80 10/36/80 42/38/80
